<svg xmlns="http://www.w3.org/2000/svg" width="69.677" height="57.004" viewBox="0 0 69.677 57.004"><defs><style>.a,.b{stroke:none;}.b{fill:#fff;}</style></defs><g transform="translate(-52.075 -719)"><g transform="translate(52.076 686.305)"><g transform="translate(0 32.695)"><g transform="translate(0 0)"><path d="M58.6,46.255a37.082,37.082,0,0,0-6.525-8.027c-4.029-3.57-7.39-3.483-9.035-3.113a6.22,6.22,0,0,0-1.885.753,17.183,17.183,0,0,0-10.587-3.174,17.183,17.183,0,0,0-10.587,3.174,6.218,6.218,0,0,0-1.885-.753c-1.645-.37-5.006-.457-9.035,3.113a37.09,37.09,0,0,0-6.525,8.027C-.1,50.69-.684,54.278.794,56.919a8.076,8.076,0,0,0,6.748,4.253,27.9,27.9,0,0,0-.878,7.174,17.3,17.3,0,0,0,2.52,9.525,15.293,15.293,0,0,0,6.29,5.431c5,2.442,11.008,2.724,15.1,2.724s10.1-.282,15.1-2.724a15.294,15.294,0,0,0,6.29-5.431,17.3,17.3,0,0,0,2.52-9.525,27.9,27.9,0,0,0-.878-7.174,8.077,8.077,0,0,0,6.748-4.253C61.822,54.278,61.235,50.69,58.6,46.255ZM8.7,57.486c-1.955-.051-3.544-.43-4.643-2.394-.745-1.333-.127-3.857,1.7-6.926a33.484,33.484,0,0,1,5.789-7.137c2.6-2.305,4.552-2.432,5.469-2.309-2.731,3.329-4.4,7.655-5.8,11.861-.58,1.742-1.138,3.229-1.679,4.667C9.242,56.017,8.964,56.758,8.7,57.486ZM28.128,69.756a4.549,4.549,0,0,1-1.475-2.486c0-.449.077-.482.363-.6a11.368,11.368,0,0,1,3.553-.383,11.368,11.368,0,0,1,3.553.383c.286.12.363.153.363.6a4.549,4.549,0,0,1-1.475,2.486,4.6,4.6,0,0,1-2.441,1.465A4.6,4.6,0,0,1,28.128,69.756ZM44.021,79.939c-2.872,1.4-6.674,2.165-11.581,2.316V74.589A9.908,9.908,0,0,0,35.656,72.4c.773-.773,2.572-2.82,2.572-5.133a4.159,4.159,0,0,0-2.654-4.051,12.869,12.869,0,0,0-5-.676,12.87,12.87,0,0,0-5,.676,4.159,4.159,0,0,0-2.654,4.051c0,2.313,1.8,4.361,2.572,5.133A9.9,9.9,0,0,0,28.7,74.589v7.665c-4.907-.151-8.709-.912-11.581-2.316-4.516-2.208-6.712-6-6.712-11.593,0-4.785,1.1-7.72,2.629-11.782.527-1.4,1.124-2.992,1.726-4.8,3.308-9.939,6.807-15.325,15.809-15.325s12.5,5.386,15.809,15.325c.6,1.81,1.2,3.4,1.726,4.8,1.526,4.062,2.629,7,2.629,11.782C50.733,73.939,48.537,77.731,44.021,79.939ZM57.079,55.092c-1.1,1.964-2.688,2.342-4.643,2.394-.262-.729-.539-1.469-.828-2.238-.54-1.438-1.1-2.925-1.679-4.667-1.4-4.206-3.073-8.532-5.8-11.861.918-.123,2.868,0,5.469,2.309a33.475,33.475,0,0,1,5.789,7.136C57.206,51.235,57.824,53.759,57.079,55.092Z" transform="translate(0 -32.695)"/><path d="M185.743,199.256a2.488,2.488,0,1,0,2.457,2.487A2.473,2.473,0,0,0,185.743,199.256Z" transform="translate(-161.401 -179.367)"/><path d="M289.738,199.093a2.507,2.507,0,1,0,2.474,2.507A2.492,2.492,0,0,0,289.738,199.093Z" transform="translate(-252.96 -179.223)"/></g></g></g><g transform="translate(25.557 738.56)"><g transform="translate(68.193)"><g transform="translate(0)"><g transform="translate(-68.193 0)"><path class="a" d="M 81.19410705566406 36.44366073608398 C 79.4720458984375 36.44366073608398 77.86842346191406 35.75646209716797 76.67865753173828 34.50866317749023 C 75.48485565185547 33.25653076171875 74.87281799316406 31.61422157287598 74.95525360107422 29.88423156738281 L 75.51657104492188 17.17512321472168 L 74.40996551513672 17.17512321472168 C 70.43051910400391 17.17512321472168 67.19300079345703 13.93763256072998 67.19300079345703 9.958211898803711 L 67.19300079345703 6.873712062835693 C 67.19300079345703 5.74974250793457 68.10741424560547 4.83533239364624 69.23139953613281 4.83533239364624 L 69.77561950683594 4.83533239364624 L 69.77561950683594 2.080372333526611 C 69.77561950683594 0.9564023017883301 70.69002532958984 0.04199227690696716 71.81399536132812 0.04199227690696716 C 72.22643280029297 0.04199227690696716 72.61064910888672 0.1651167124509811 72.93182373046875 0.376537412405014 C 73.20726013183594 -0.4235091507434845 73.96756744384766 -0.9999977350234985 74.85993957519531 -0.9999977350234985 C 75.78173828125 -0.9999977350234985 76.56260681152344 -0.3848947584629059 76.81369018554688 0.4563786089420319 C 77.15589141845703 0.1964454352855682 77.58243560791016 0.04199227690696716 78.04432678222656 0.04199227690696716 C 78.45675659179688 0.04199227690696716 78.84098052978516 0.1651167124509811 79.16215515136719 0.376537412405014 C 79.43758392333984 -0.4235091507434845 80.19789886474609 -0.9999977350234985 81.09026336669922 -0.9999977350234985 C 82.02825927734375 -0.9999977350234985 82.8203125 -0.3631304800510406 83.05674743652344 0.5008825659751892 C 83.40795135498047 0.2141525596380234 83.856201171875 0.04199227690696716 84.34388732910156 0.04199227690696716 C 84.75631713867188 0.04199227690696716 85.14054107666016 0.1651183217763901 85.46171569824219 0.376539021730423 C 85.73714447021484 -0.4235075712203979 86.49745941162109 -0.9999977350234985 87.38982391357422 -0.9999977350234985 C 88.31163024902344 -0.9999977350234985 89.09249877929688 -0.3848937749862671 89.34358215332031 0.4563795924186707 C 89.68577575683594 0.196446418762207 90.11231231689453 0.04199227690696716 90.57420349121094 0.04199227690696716 C 91.69818878173828 0.04199227690696716 92.61260986328125 0.9564023017883301 92.61260986328125 2.080372333526611 L 92.61260986328125 4.83533239364624 L 93.15682983398438 4.83533239364624 C 94.28079986572266 4.83533239364624 95.19521331787109 5.74974250793457 95.19521331787109 6.873712062835693 L 95.19521331787109 9.958151817321777 C 95.19521331787109 13.93756198883057 91.95769500732422 17.17505264282227 87.97823333740234 17.17505264282227 L 86.8717041015625 17.17505264282227 L 87.43325805664062 29.89131164550781 C 87.51546478271484 31.61543273925781 86.90337371826172 33.25644302368164 85.70957946777344 34.50856399536133 C 84.51982879638672 35.75643157958984 82.91620635986328 36.44366073608398 81.19410705566406 36.44366073608398 Z M 79.59732055664062 17.1750431060791 L 79.0277099609375 30.07114219665527 C 78.99858856201172 30.68239212036133 79.2122802734375 31.25800132751465 79.62923431396484 31.69540214538574 C 80.04206085205078 32.12839126586914 80.59782409667969 32.36688232421875 81.19410705566406 32.36688232421875 C 81.79039001464844 32.36688232421875 82.34615325927734 32.12839126586914 82.75902557373047 31.69535255432129 C 83.17594909667969 31.25804138183594 83.38967895507812 30.68375205993652 83.36080932617188 30.07830238342285 L 82.79090881347656 17.1750431060791 L 79.59732055664062 17.1750431060791 Z M 71.26976776123047 8.912102699279785 L 71.26976776123047 9.958211898803711 C 71.26976776123047 11.68968200683594 72.67845916748047 13.0983419418335 74.40996551513672 13.0983419418335 L 87.97823333740234 13.0983419418335 C 89.70974731445312 13.0983419418335 91.11843872070312 11.68968200683594 91.11843872070312 9.958211898803711 L 91.11840057373047 8.912102699279785 L 71.26976776123047 8.912102699279785 Z"/><path class="b" d="M 74.85993957519531 3.814697265625e-06 C 74.28647613525391 3.814697265625e-06 73.82154846191406 0.4649238586425781 73.82154846191406 1.038383483886719 L 73.82154846191406 5.835321426391602 L 72.85238647460938 5.835321426391602 L 72.85238647460938 2.080371856689453 C 72.85238647460938 1.506912231445312 72.38746643066406 1.0419921875 71.81399536132812 1.0419921875 C 71.24052429199219 1.0419921875 70.77560424804688 1.506912231445312 70.77560424804688 2.080371856689453 L 70.77560424804688 5.835321426391602 L 69.23138427734375 5.835321426391602 C 68.65792083740234 5.835321426391602 68.19300079345703 6.300252914428711 68.19300079345703 6.873712539672852 L 68.19300079345703 9.958211898803711 C 68.19300079345703 13.38621139526367 70.98191070556641 16.17512321472168 74.40996551513672 16.17512321472168 L 76.56171417236328 16.17512321472168 L 75.95412445068359 29.93182182312012 C 75.88482666015625 31.3859920501709 76.39917755126953 32.76635360717773 77.40239715576172 33.81858062744141 C 78.40160369873047 34.86652374267578 79.74818420410156 35.44366073608398 81.19410705566406 35.44366073608398 C 82.64002990722656 35.44366073608398 83.98661041259766 34.86652374267578 84.98581695556641 33.81851196289062 C 85.98903656005859 32.76628112792969 86.50338745117188 31.38591194152832 86.43422698974609 29.93542289733887 L 85.82656860351562 16.17505264282227 L 87.97823333740234 16.17505264282227 C 91.40630340576172 16.17505264282227 94.19521331787109 13.38614273071289 94.19521331787109 9.958141326904297 L 94.19521331787109 6.873712539672852 C 94.19521331787109 6.300252914428711 93.73029327392578 5.835321426391602 93.15682983398438 5.835321426391602 L 91.61259460449219 5.835321426391602 L 91.61259460449219 2.080371856689453 C 91.61259460449219 1.506912231445312 91.14767456054688 1.0419921875 90.57420349121094 1.0419921875 C 90.00074768066406 1.0419921875 89.53583526611328 1.506912231445312 89.53583526611328 2.080371856689453 L 89.53583526611328 5.835321426391602 L 88.42821502685547 5.835321426391602 L 88.42821502685547 1.038383483886719 C 88.42821502685547 0.4649238586425781 87.96329498291016 3.814697265625e-06 87.38982391357422 3.814697265625e-06 C 86.81636047363281 3.814697265625e-06 86.3514404296875 0.4649238586425781 86.3514404296875 1.038383483886719 L 86.3514404296875 5.835321426391602 L 85.38227081298828 5.835321426391602 L 85.38227081298828 2.080371856689453 C 85.38227081298828 1.506912231445312 84.91735076904297 1.0419921875 84.34388732910156 1.0419921875 C 83.77042388916016 1.0419921875 83.30549621582031 1.506912231445312 83.30549621582031 2.080371856689453 L 83.30549621582031 5.835321426391602 L 82.12865447998047 5.835321426391602 L 82.12865447998047 1.038383483886719 C 82.12865447998047 0.4649238586425781 81.66373443603516 3.814697265625e-06 81.09026336669922 3.814697265625e-06 C 80.51679992675781 3.814697265625e-06 80.0518798828125 0.4649238586425781 80.0518798828125 1.038383483886719 L 80.0518798828125 5.835321426391602 L 79.08271789550781 5.835321426391602 L 79.08271789550781 2.080371856689453 C 79.08271789550781 1.506912231445312 78.6177978515625 1.0419921875 78.04432678222656 1.0419921875 C 77.47085571289062 1.0419921875 77.00593566894531 1.506912231445312 77.00593566894531 2.080371856689453 L 77.00593566894531 5.835321426391602 L 75.89833068847656 5.835321426391602 L 75.89833068847656 1.038383483886719 C 75.89833068847656 0.4649238586425781 75.43341064453125 3.814697265625e-06 74.85993957519531 3.814697265625e-06 M 87.97823333740234 14.09834289550781 L 74.40996551513672 14.09834289550781 C 72.12703704833984 14.09834289550781 70.26976776123047 12.2410831451416 70.26976776123047 9.958211898803711 L 70.26976776123047 7.912101745605469 L 92.11837005615234 7.912101745605469 L 92.11837005615234 9.958211898803711 L 92.11843872070312 9.958211898803711 C 92.11843872070312 12.2410831451416 90.26118469238281 14.09834289550781 87.97823333740234 14.09834289550781 M 81.19410705566406 33.36688232421875 C 80.3216552734375 33.36688232421875 79.50888061523438 33.01833343505859 78.90542602539062 32.38540267944336 C 78.2979736328125 31.74818229675293 77.98651885986328 30.91192245483398 78.02867889404297 30.02701187133789 L 78.64051055908203 16.1750431060791 L 83.74771881103516 16.1750431060791 L 84.35968017578125 30.03068161010742 C 84.40168762207031 30.91192245483398 84.09024047851562 31.74824142456055 83.4827880859375 32.38540267944336 C 82.87933349609375 33.01833343505859 82.06655883789062 33.36688232421875 81.19410705566406 33.36688232421875 M 74.85993957519531 -1.999996185302734 C 75.82237243652344 -1.999996185302734 76.68181610107422 -1.550094604492188 77.23891448974609 -0.8496665954589844 C 77.49552917480469 -0.9202919006347656 77.76557922363281 -0.9580078125 78.04432678222656 -0.9580078125 C 78.28176879882812 -0.9580078125 78.51290893554688 -0.930633544921875 78.73480987548828 -0.8788719177246094 C 79.29241943359375 -1.562633514404297 80.14122772216797 -1.999996185302734 81.09026336669922 -1.999996185302734 C 82.06017303466797 -1.999996185302734 82.92530822753906 -1.543292999267578 83.48198699951172 -0.833526611328125 C 83.75536346435547 -0.9145393371582031 84.04458618164062 -0.9580078125 84.34388732910156 -0.9580078125 C 84.58132934570312 -0.9580078125 84.81246948242188 -0.930633544921875 85.03437042236328 -0.8788719177246094 C 85.59197235107422 -1.562633514404297 86.44078826904297 -1.999996185302734 87.38982391357422 -1.999996185302734 C 88.35226440429688 -1.999996185302734 89.21170043945312 -1.550094604492188 89.768798828125 -0.8496665954589844 C 90.02542114257812 -0.9202919006347656 90.29545593261719 -0.9580078125 90.57420349121094 -0.9580078125 C 92.24958038330078 -0.9580078125 93.61259460449219 0.4050025939941406 93.61259460449219 2.080371856689453 L 93.61259460449219 3.869434356689453 C 95.07247161865234 4.090044021606445 96.19521331787109 5.353260040283203 96.19521331787109 6.873712539672852 L 96.19521331787109 9.958141326904297 C 96.19521331787109 14.48896217346191 92.50909423828125 18.17505264282227 87.97823333740234 18.17505264282227 L 87.91683197021484 18.17505264282227 L 88.43210601806641 29.84336853027344 C 88.52670288085938 31.84561729431152 87.81694030761719 33.74742889404297 86.43333435058594 35.19861221313477 C 85.05300903320312 36.6463623046875 83.19234466552734 37.44366073608398 81.19410705566406 37.44366073608398 C 79.19591522216797 37.44366073608398 77.33526611328125 36.64640045166016 75.95492553710938 35.1987419128418 C 74.57147979736328 33.74769592285156 73.86175537109375 31.84517669677734 73.95619964599609 29.84083938598633 L 74.471435546875 18.17512321472168 L 74.40996551513672 18.17512321472168 C 69.87911987304688 18.17512321472168 66.19300079345703 14.48903274536133 66.19300079345703 9.958211898803711 L 66.19300079345703 6.873712539672852 C 66.19300079345703 5.353260040283203 67.31573486328125 4.090045928955078 68.77560424804688 3.869436264038086 L 68.77560424804688 2.080371856689453 C 68.77560424804688 0.4050025939941406 70.13862609863281 -0.9580078125 71.81399536132812 -0.9580078125 C 72.05143737792969 -0.9580078125 72.28257751464844 -0.930633544921875 72.50448608398438 -0.8788719177246094 C 73.06208801269531 -1.562633514404297 73.91089630126953 -1.999996185302734 74.85993957519531 -1.999996185302734 Z M 90.11843872070312 9.912101745605469 L 72.26976776123047 9.912101745605469 L 72.26976776123047 9.958211898803711 C 72.26976776123047 11.13828277587891 73.2298583984375 12.09834289550781 74.40996551513672 12.09834289550781 L 87.97823333740234 12.09834289550781 C 89.15834808349609 12.09834289550781 90.11843872070312 11.13828277587891 90.11843872070312 9.958211898803711 L 90.11843872070312 9.912101745605469 Z M 81.8341064453125 18.1750431060791 L 80.55411529541016 18.1750431060791 L 80.02672576904297 30.11526298522949 L 80.02658081054688 30.11873245239258 L 80.02640533447266 30.1221923828125 C 80.01036834716797 30.45900344848633 80.12331390380859 30.76441192626953 80.35305023193359 31.00541305541992 C 80.57847595214844 31.24185180664062 80.86934661865234 31.36688232421875 81.19410705566406 31.36688232421875 C 81.51886749267578 31.36688232421875 81.80973815917969 31.24185180664062 82.03527069091797 31.00530242919922 C 82.26490783691406 30.76442337036133 82.37788391113281 30.46032333374023 82.36194610595703 30.12591171264648 L 82.36177825927734 30.12242126464844 L 82.36162567138672 30.11893272399902 L 81.8341064453125 18.1750431060791 Z"/></g></g></g><g transform="translate(80.156 26.036)"><g transform="translate(0)"><g transform="translate(-241 -376.105)"><path class="a" d="M 242.0383911132812 382.2703552246094 C 240.9144287109375 382.2703552246094 240 381.3559265136719 240 380.2319641113281 L 240 377.1433715820312 C 240 376.0194091796875 240.9144287109375 375.1050109863281 242.0383911132812 375.1050109863281 C 243.162353515625 375.1050109863281 244.0767822265625 376.0194091796875 244.0767822265625 377.1433715820312 L 244.0767822265625 380.2319641113281 C 244.0767822265625 381.3559265136719 243.162353515625 382.2703552246094 242.0383911132812 382.2703552246094 Z"/><path class="b" d="M 242.0383911132812 376.1050109863281 C 241.4649047851562 376.1050109863281 241 376.5699157714844 241 377.1433715820312 L 241 380.2319641113281 C 241 380.8054504394531 241.4649047851562 381.2703552246094 242.0383911132812 381.2703552246094 C 242.6118774414062 381.2703552246094 243.0767822265625 380.8054504394531 243.0767822265625 380.2319641113281 L 243.0767822265625 377.1433715820312 C 243.0767822265625 376.5699157714844 242.6118774414062 376.1050109863281 242.0383911132812 376.1050109863281 M 242.0383911132812 374.1050109863281 C 243.7137603759766 374.1050109863281 245.0767822265625 375.468017578125 245.0767822265625 377.1433715820312 L 245.0767822265625 380.2319641113281 C 245.0767822265625 381.9073181152344 243.7137603759766 383.2703552246094 242.0383911132812 383.2703552246094 C 240.3630218505859 383.2703552246094 239 381.9073181152344 239 380.2319641113281 L 239 377.1433715820312 C 239 375.468017578125 240.3630218505859 374.1050109863281 242.0383911132812 374.1050109863281 Z"/></g></g></g></g></g></svg>