<svg xmlns="http://www.w3.org/2000/svg" width="64.958" height="64.958" viewBox="0 0 64.958 64.958"><path d="M3.806,61.152H1.9a1.9,1.9,0,1,0,0,3.806H63.055a1.9,1.9,0,0,0,0-3.806h-1.9V11.418h1.9a1.9,1.9,0,0,0,1.9-1.9V1.9a1.9,1.9,0,0,0-1.9-1.9H1.9A1.9,1.9,0,0,0,0,1.9V9.515a1.9,1.9,0,0,0,1.9,1.9h1.9ZM41.995,49.607V61.152H34.382V49.607ZM30.576,61.152H22.964V49.607h7.612ZM3.806,3.806H61.152V7.612H3.806Zm53.54,7.612V45.8h-1.9a1.9,1.9,0,0,0,0,3.806h1.9v3.806h-1.9a1.9,1.9,0,0,0,0,3.806h1.9v3.933H45.8V47.7a1.9,1.9,0,0,0-1.9-1.9H21.061a1.9,1.9,0,0,0-1.9,1.9V61.152H7.612V57.219h2.03a1.9,1.9,0,0,0,0-3.806H7.612V49.607h2.03a1.9,1.9,0,0,0,0-3.806H7.612V11.418Z"/><path d="M92.9,252.418h7.612a1.9,1.9,0,0,0,1.9-1.9V242.9a1.9,1.9,0,0,0-1.9-1.9H92.9a1.9,1.9,0,0,0-1.9,1.9v7.612A1.9,1.9,0,0,0,92.9,252.418Zm1.9-7.612h3.806v3.806H94.806Z" transform="translate(-79.455 -210.424)"/><path d="M212.9,252.418h7.612a1.9,1.9,0,0,0,1.9-1.9V242.9a1.9,1.9,0,0,0-1.9-1.9H212.9a1.9,1.9,0,0,0-1.9,1.9v7.612A1.9,1.9,0,0,0,212.9,252.418Zm1.9-7.612h3.806v3.806h-3.806Z" transform="translate(-184.23 -210.424)"/><path d="M92.9,132.418h7.612a1.9,1.9,0,0,0,1.9-1.9V122.9a1.9,1.9,0,0,0-1.9-1.9H92.9a1.9,1.9,0,0,0-1.9,1.9v7.612A1.9,1.9,0,0,0,92.9,132.418Zm1.9-7.612h3.806v3.806H94.806Z" transform="translate(-79.455 -105.649)"/><path d="M332.9,252.418h7.612a1.9,1.9,0,0,0,1.9-1.9V242.9a1.9,1.9,0,0,0-1.9-1.9H332.9a1.9,1.9,0,0,0-1.9,1.9v7.612A1.9,1.9,0,0,0,332.9,252.418Zm1.9-7.612h3.806v3.806h-3.806Z" transform="translate(-289.005 -210.424)"/><path d="M332.9,132.418h7.612a1.9,1.9,0,0,0,1.9-1.9V122.9a1.9,1.9,0,0,0-1.9-1.9H332.9a1.9,1.9,0,0,0-1.9,1.9v7.612A1.9,1.9,0,0,0,332.9,132.418Zm1.9-7.612h3.806v3.806h-3.806Z" transform="translate(-289.005 -105.649)"/><path d="M212.9,128.612h1.9v1.9a1.9,1.9,0,0,0,3.806,0v-1.9h1.9a1.9,1.9,0,0,0,0-3.806h-1.9v-1.9a1.9,1.9,0,0,0-3.806,0v1.9h-1.9a1.9,1.9,0,0,0,0,3.806Z" transform="translate(-184.23 -105.649)"/></svg>