<svg xmlns="http://www.w3.org/2000/svg" width="64.958" height="64.959" viewBox="0 0 64.958 64.959"><g transform="translate(-0.004 0)"><g transform="translate(0.004 0)"><g transform="translate(0 0)"><path d="M64.767,62.216,60.96,54.477a1.9,1.9,0,0,0-1.708-1.063H54.229L56.976,30.1a5.71,5.71,0,0,0,5.6-9.882L35.8,1.061a5.713,5.713,0,0,0-6.636,0L2.393,20.22A5.709,5.709,0,0,0,7.987,30.1l3.446,29.244a1.9,1.9,0,0,0,1.89,1.68H42.778l-.585,1.19A1.9,1.9,0,0,0,43.9,64.959H63.059a1.9,1.9,0,0,0,1.708-2.743ZM6.82,26.414a1.9,1.9,0,1,1-2.213-3.1L31.375,4.16a1.9,1.9,0,0,1,2.21,0L60.358,23.317a1.9,1.9,0,1,1-2.215,3.1L33.584,8.962a1.9,1.9,0,0,0-2.2,0ZM39.8,50.915l-1.261,6.3H26.43l-1.261-6.3a7.458,7.458,0,1,1,14.626,0ZM46,54.477,44.65,57.22H42.416l1.112-5.558a11.264,11.264,0,1,0-22.091,0l1.112,5.558H15.016L11.54,27.729,32.482,12.848,53.423,27.729,50.4,53.414h-2.69A1.9,1.9,0,0,0,46,54.477Zm.958,6.676,1.934-3.933h9.176L60,61.153Z" transform="translate(-0.004 0)"/></g></g><g transform="translate(22.966 22.964)"><path d="M197.006,186.707l2.46-2.46a1.9,1.9,0,0,0-2.691-2.691l-3.249,3.249H187.49l-3.249-3.249a1.9,1.9,0,0,0-2.691,2.691l2.46,2.46-2.46,2.46a1.9,1.9,0,1,0,2.691,2.691l3.249-3.249h6.036l3.249,3.249a1.9,1.9,0,0,0,2.691-2.691Z" transform="translate(-180.992 -180.997)"/></g></g></svg>