<svg xmlns="http://www.w3.org/2000/svg" width="24" height="22.857" viewBox="0 0 24 22.857"><g transform="translate(0 -13.415)"><path d="M136.449,26.154a6.37,6.37,0,1,0-6.462-6.379A6.422,6.422,0,0,0,136.449,26.154Zm0-11.076a4.7,4.7,0,1,1-4.757,4.7A4.741,4.741,0,0,1,136.449,15.078Z" transform="translate(-124.488 0)"/><path d="M.847,349.771H23.153a.838.838,0,0,0,.847-.841,8.041,8.041,0,0,0-8.059-8H8.059a8.041,8.041,0,0,0-8.059,8A.838.838,0,0,0,.847,349.771Zm7.212-7.162h7.882a6.346,6.346,0,0,1,6.305,5.479H1.754A6.363,6.363,0,0,1,8.059,342.609Z" transform="translate(0 -313.499)"/></g></svg>