<?xml version="1.0"?>
<svg xmlns="http://www.w3.org/2000/svg" xmlns:xlink="http://www.w3.org/1999/xlink" version="1.1" id="Capa_1" x="0px" y="0px" viewBox="0 0 511.996 511.996" style="enable-background:new 0 0 511.996 511.996;" xml:space="preserve" width="512px" height="512px"><g><g>
	<g>
		<path d="M256.001,0C163.854,0,88.886,74.962,88.886,167.109s74.968,167.109,167.115,167.109    c92.141,0,167.109-74.962,167.109-167.109S348.148,0,256.001,0z M255.995,298.663c-72.538,0-131.554-59.016-131.554-131.554    s59.016-131.554,131.56-131.554c72.538,0,131.548,59.016,131.548,131.554S328.534,298.663,255.995,298.663z" data-original="#000000" class="active-path" data-old_color="#000000" fill="#2FA118"/>
	</g>
</g><g>
	<g>
		<path d="M338.365,276.738v188.182l-74.156-38.625c-5.144-2.672-11.277-2.672-16.421,0l-74.162,38.625V277.923h-35.555v216.294    c0,6.216,3.247,11.976,8.551,15.194c5.315,3.236,11.923,3.443,17.434,0.575l91.94-47.875l91.934,47.875    c2.584,1.345,5.398,2.009,8.213,2.009c3.2,0,6.394-0.859,9.221-2.584c5.31-3.218,8.557-8.978,8.557-15.194V276.738H338.365z" data-original="#000000" class="active-path" data-old_color="#000000" fill="#2FA118"/>
	</g>
</g><g>
	<g>
		<path d="M256.001,98.369c-37.902,0-68.74,30.838-68.74,68.74s30.838,68.74,68.74,68.74c37.902,0,68.734-30.838,68.74-68.74    C324.741,129.207,293.903,98.369,256.001,98.369z M256.001,200.294c-18.299,0-33.185-14.892-33.185-33.185    c0-18.299,14.886-33.185,33.185-33.185c18.293,0,33.179,14.886,33.185,33.185C289.186,185.408,274.3,200.294,256.001,200.294z" data-original="#000000" class="active-path" data-old_color="#000000" fill="#2FA118"/>
	</g>
</g></g> </svg>
