<svg xmlns="http://www.w3.org/2000/svg" width="15" height="17.647" viewBox="0 0 15 17.647"><defs><style>.a{fill:#fff;}</style></defs><g transform="translate(-38.25)"><g transform="translate(38.25)"><path class="a" d="M45.75,17.647a1.77,1.77,0,0,0,1.765-1.765H43.985A1.77,1.77,0,0,0,45.75,17.647Zm5.735-5.294V7.5a5.678,5.678,0,0,0-4.412-5.559V1.324a1.324,1.324,0,0,0-2.647,0v.618A5.678,5.678,0,0,0,40.015,7.5v4.853L38.25,14.118V15h15v-.882Zm-1.765.882H41.779V7.5a3.971,3.971,0,0,1,7.941,0Z" transform="translate(-38.25)"/></g></g></svg>